<?xml version="1.0" encoding="UTF-8"?>
<svg width="512" height="512" viewBox="0 0 512 512" fill="none" xmlns="http://www.w3.org/2000/svg">
  <rect width="512" height="512" fill="#4F46E5"/>
  <path d="M256 128C282.5 128 304 149.5 304 176C304 202.5 282.5 224 256 224C229.5 224 208 202.5 208 176C208 149.5 229.5 128 256 128Z" fill="white"/>
  <path d="M368 256C394.5 256 416 277.5 416 304C416 330.5 394.5 352 368 352C341.5 352 320 330.5 320 304C320 277.5 341.5 256 368 256Z" fill="white"/>
  <path d="M144 256C170.5 256 192 277.5 192 304C192 330.5 170.5 352 144 352C117.5 352 96 330.5 96 304C96 277.5 117.5 256 144 256Z" fill="white"/>
  <path d="M256 384C282.5 384 304 405.5 304 432C304 458.5 282.5 480 256 480C229.5 480 208 458.5 208 432C208 405.5 229.5 384 256 384Z" fill="white"/>
</svg> 